<svg xmlns="http://www.w3.org/2000/svg" xmlns:xlink="http://www.w3.org/1999/xlink" width="384" zoomAndPan="magnify" viewBox="0 0 288 72" height="96" preserveAspectRatio="xMidYMid meet" version="1.0"><defs><g/></defs><g fill="#fdf2e5" fill-opacity="0.302"><g transform="translate(8.533513, 54.843453)"><g><path d="M 14.210938 -24.664062 L 22.023438 -16.558594 C 22.316406 -16.207031 22.667969 -15.972656 23.136719 -15.738281 C 23.609375 -15.503906 24.078125 -15.386719 24.664062 -15.386719 C 25.25 -15.386719 25.722656 -15.503906 26.191406 -15.738281 C 26.660156 -15.972656 27.011719 -16.207031 27.367188 -16.558594 L 35.175781 -24.664062 L 35.175781 -4.523438 C 35.175781 -3.992188 35.234375 -3.464844 35.46875 -2.9375 C 35.703125 -2.347656 36 -1.878906 36.410156 -1.410156 C 36.820312 -0.941406 37.347656 -0.527344 37.9375 -0.234375 C 38.523438 0.0585938 39.285156 0.175781 40.109375 0.175781 C 40.929688 0.175781 41.636719 0.0585938 42.222656 -0.234375 C 42.808594 -0.527344 43.339844 -0.882812 43.75 -1.351562 C 44.160156 -1.820312 44.453125 -2.289062 44.691406 -2.878906 C 44.925781 -3.40625 45.042969 -3.933594 45.042969 -4.464844 L 45.042969 -36.820312 C 45.042969 -37.347656 44.925781 -37.878906 44.691406 -38.40625 C 44.453125 -38.933594 44.160156 -39.40625 43.75 -39.875 C 43.28125 -40.34375 42.75 -40.695312 42.164062 -40.988281 C 41.578125 -41.226562 40.871094 -41.402344 40.050781 -41.402344 C 39.285156 -41.402344 38.582031 -41.226562 37.9375 -40.988281 C 37.289062 -40.695312 36.761719 -40.34375 36.351562 -39.933594 L 24.546875 -27.601562 L 13.035156 -40.050781 C 12.097656 -41.046875 10.863281 -41.578125 9.335938 -41.578125 C 8.515625 -41.578125 7.75 -41.402344 7.164062 -41.109375 C 6.578125 -40.8125 6.046875 -40.460938 5.636719 -39.992188 C 5.167969 -39.523438 4.875 -39.050781 4.640625 -38.523438 C 4.40625 -37.9375 4.34375 -37.40625 4.34375 -36.9375 L 4.34375 -4.582031 C 4.34375 -4.050781 4.40625 -3.523438 4.640625 -2.996094 C 4.875 -2.40625 5.167969 -1.9375 5.578125 -1.46875 C 5.988281 -1 6.519531 -0.585938 7.105469 -0.292969 C 7.691406 0 8.457031 0.117188 9.277344 0.117188 C 10.101562 0.117188 10.804688 0 11.453125 -0.292969 C 12.039062 -0.585938 12.566406 -0.941406 12.976562 -1.410156 C 13.390625 -1.878906 13.683594 -2.347656 13.917969 -2.9375 C 14.09375 -3.464844 14.210938 -3.992188 14.210938 -4.523438 Z M 14.210938 -24.664062 "/></g></g></g><g fill="#fdf2e5" fill-opacity="0.302"><g transform="translate(58.212898, 54.843453)"><g><path d="M 28.480469 -37.996094 C 28.128906 -38.933594 27.425781 -39.757812 26.484375 -40.519531 C 25.488281 -41.226562 24.3125 -41.636719 22.960938 -41.636719 C 21.550781 -41.636719 20.378906 -41.226562 19.378906 -40.519531 C 18.382812 -39.816406 17.675781 -38.933594 17.324219 -37.996094 L 4.699219 -6.285156 C 4.464844 -5.753906 4.40625 -5.226562 4.40625 -4.640625 C 4.40625 -4.109375 4.464844 -3.582031 4.699219 -3.054688 C 4.933594 -2.464844 5.226562 -1.996094 5.636719 -1.585938 C 6.046875 -1.117188 6.578125 -0.761719 7.222656 -0.46875 C 7.808594 -0.175781 8.515625 -0.0585938 9.335938 -0.0585938 C 10.511719 -0.0585938 11.511719 -0.351562 12.332031 -1 C 13.09375 -1.585938 13.625 -2.289062 13.976562 -3.113281 L 17.265625 -11.394531 C 17.324219 -11.511719 17.441406 -11.628906 17.558594 -11.746094 C 17.675781 -11.804688 17.851562 -11.863281 17.96875 -11.863281 L 27.894531 -11.863281 C 28.128906 -11.863281 28.363281 -11.6875 28.597656 -11.394531 L 31.828125 -3.113281 C 32.121094 -2.289062 32.652344 -1.585938 33.472656 -1 C 34.238281 -0.351562 35.234375 -0.0585938 36.46875 -0.0585938 C 37.289062 -0.0585938 37.996094 -0.175781 38.582031 -0.46875 C 39.167969 -0.761719 39.699219 -1.117188 40.167969 -1.585938 C 40.578125 -1.996094 40.871094 -2.464844 41.109375 -3.054688 C 41.34375 -3.582031 41.460938 -4.109375 41.460938 -4.640625 C 41.460938 -5.226562 41.34375 -5.8125 41.109375 -6.285156 Z M 22.902344 -25.429688 C 23.019531 -25.074219 23.136719 -24.78125 23.253906 -24.488281 C 23.371094 -24.136719 23.546875 -23.84375 23.667969 -23.488281 C 23.785156 -23.078125 23.960938 -22.726562 24.136719 -22.375 C 24.253906 -22.023438 24.371094 -21.667969 24.488281 -21.375 C 24.546875 -21.199219 24.605469 -21.082031 24.605469 -21.082031 L 21.082031 -21.082031 C 21.140625 -21.140625 21.199219 -21.199219 21.199219 -21.316406 C 21.433594 -22.023438 21.726562 -22.667969 22.023438 -23.371094 C 22.257812 -24.078125 22.550781 -24.722656 22.902344 -25.429688 Z M 22.902344 -25.429688 "/></g></g></g><g fill="#fdf2e5" fill-opacity="0.302"><g transform="translate(104.01658, 54.843453)"><g><path d="M 25.605469 -17.558594 C 27.835938 -18.792969 29.597656 -20.320312 30.832031 -22.082031 C 32.003906 -23.84375 32.652344 -26.132812 32.652344 -28.832031 C 32.652344 -30.417969 32.296875 -32.003906 31.710938 -33.53125 C 31.125 -35.058594 30.242188 -36.46875 29.070312 -37.703125 C 27.894531 -38.875 26.484375 -39.875 24.78125 -40.578125 C 23.078125 -41.285156 21.140625 -41.695312 18.96875 -41.695312 L 9.394531 -41.695312 C 8.574219 -41.695312 7.808594 -41.519531 7.222656 -41.226562 C 6.636719 -40.929688 6.105469 -40.578125 5.695312 -40.109375 C 5.226562 -39.640625 4.933594 -39.167969 4.699219 -38.640625 C 4.464844 -38.054688 4.40625 -37.523438 4.40625 -36.996094 L 4.40625 -4.699219 C 4.40625 -4.167969 4.464844 -3.640625 4.699219 -3.113281 C 4.933594 -2.523438 5.226562 -2.054688 5.636719 -1.585938 C 6.046875 -1.117188 6.578125 -0.703125 7.164062 -0.410156 C 7.75 -0.117188 8.515625 0 9.335938 0 C 10.160156 0 10.863281 -0.117188 11.511719 -0.410156 C 12.097656 -0.703125 12.625 -1.058594 13.035156 -1.527344 C 13.449219 -1.996094 13.742188 -2.464844 13.976562 -3.054688 C 14.152344 -3.582031 14.269531 -4.109375 14.269531 -4.640625 L 14.269531 -15.386719 C 14.269531 -15.621094 14.328125 -15.796875 14.445312 -15.855469 C 14.5625 -15.914062 14.621094 -15.972656 14.679688 -15.972656 C 14.917969 -15.972656 15.210938 -15.796875 15.445312 -15.503906 L 23.667969 -2.289062 C 24.078125 -1.585938 24.664062 -1.058594 25.371094 -0.644531 C 26.074219 -0.175781 26.953125 0 27.953125 0 C 28.773438 0 29.480469 -0.117188 30.066406 -0.410156 C 30.65625 -0.703125 31.183594 -1.058594 31.59375 -1.527344 C 32.003906 -1.9375 32.296875 -2.40625 32.535156 -2.996094 C 32.769531 -3.582031 32.886719 -4.109375 32.886719 -4.640625 C 32.886719 -5.460938 32.652344 -6.285156 32.179688 -6.988281 C 31.945312 -7.28125 31.476562 -7.988281 30.773438 -9.160156 C 30.066406 -10.277344 29.304688 -11.511719 28.480469 -12.859375 C 28.011719 -13.507812 27.601562 -14.152344 27.25 -14.738281 C 26.894531 -15.328125 26.542969 -15.914062 26.25 -16.382812 C 25.898438 -16.855469 25.722656 -17.265625 25.605469 -17.558594 Z M 14.210938 -26.25 L 14.210938 -31.417969 C 14.210938 -31.710938 14.269531 -31.945312 14.503906 -32.121094 C 14.679688 -32.238281 14.859375 -32.359375 14.976562 -32.359375 L 18.851562 -32.359375 C 20.023438 -32.359375 20.964844 -32.003906 21.609375 -31.417969 C 22.257812 -30.832031 22.609375 -29.949219 22.609375 -28.832031 C 22.609375 -27.660156 22.257812 -26.777344 21.609375 -26.191406 C 20.964844 -25.605469 20.023438 -25.308594 18.851562 -25.308594 L 14.976562 -25.308594 C 14.859375 -25.308594 14.679688 -25.371094 14.503906 -25.546875 C 14.269531 -25.664062 14.210938 -25.898438 14.210938 -26.25 Z M 14.210938 -26.25 "/></g></g></g><g fill="#fdf2e5" fill-opacity="0.302"><g transform="translate(141.48164, 54.843453)"><g><path d="M 23.371094 -20.203125 C 23.371094 -20.613281 23.253906 -21.082031 23.078125 -21.550781 C 22.902344 -22.023438 22.609375 -22.433594 22.257812 -22.785156 C 21.90625 -23.136719 21.433594 -23.488281 20.90625 -23.726562 C 20.378906 -23.960938 19.789062 -24.136719 19.085938 -24.136719 L 8.632812 -24.136719 C 7.929688 -24.136719 7.28125 -23.960938 6.753906 -23.726562 C 6.226562 -23.488281 5.8125 -23.136719 5.460938 -22.785156 C 5.109375 -22.433594 4.816406 -22.023438 4.640625 -21.550781 C 4.464844 -21.082031 4.40625 -20.613281 4.40625 -20.203125 C 4.40625 -19.730469 4.464844 -19.320312 4.640625 -18.851562 C 4.816406 -18.382812 5.109375 -17.910156 5.460938 -17.558594 C 5.8125 -17.207031 6.226562 -16.855469 6.753906 -16.621094 C 7.28125 -16.382812 7.929688 -16.265625 8.632812 -16.265625 L 19.085938 -16.265625 C 19.789062 -16.265625 20.378906 -16.382812 20.90625 -16.621094 C 21.433594 -16.855469 21.90625 -17.207031 22.257812 -17.558594 C 22.609375 -17.910156 22.902344 -18.382812 23.078125 -18.851562 C 23.253906 -19.320312 23.371094 -19.730469 23.371094 -20.203125 Z M 23.371094 -20.203125 "/></g></g></g><g fill="#fdf2e5" fill-opacity="0.302"><g transform="translate(169.198737, 54.843453)"><g><path d="M 14.328125 -29.421875 L 14.328125 -36.996094 C 14.328125 -37.523438 14.210938 -38.054688 13.976562 -38.640625 C 13.742188 -39.167969 13.449219 -39.640625 13.035156 -40.109375 C 12.566406 -40.519531 12.039062 -40.871094 11.453125 -41.167969 C 10.863281 -41.460938 10.160156 -41.636719 9.335938 -41.636719 C 8.515625 -41.636719 7.75 -41.460938 7.164062 -41.167969 C 6.578125 -40.871094 6.046875 -40.519531 5.636719 -40.050781 C 5.167969 -39.582031 4.875 -39.109375 4.640625 -38.582031 C 4.40625 -37.996094 4.34375 -37.464844 4.34375 -36.9375 L 4.34375 -4.640625 C 4.34375 -4.109375 4.40625 -3.582031 4.640625 -3.054688 C 4.875 -2.464844 5.167969 -1.996094 5.578125 -1.527344 C 5.988281 -1.058594 6.519531 -0.644531 7.105469 -0.351562 C 7.691406 -0.0585938 8.457031 0.0585938 9.277344 0.0585938 C 10.101562 0.0585938 10.804688 -0.0585938 11.453125 -0.351562 C 12.039062 -0.644531 12.566406 -1 12.976562 -1.46875 C 13.390625 -1.9375 13.683594 -2.40625 13.917969 -2.996094 C 14.09375 -3.523438 14.210938 -4.050781 14.210938 -4.582031 L 14.210938 -14.5625 L 28.714844 -1.234375 C 29.128906 -0.820312 29.597656 -0.46875 30.183594 -0.234375 C 30.773438 0 31.417969 0.117188 32.179688 0.117188 C 33.003906 0.117188 33.707031 0 34.355469 -0.292969 C 34.941406 -0.585938 35.46875 -0.941406 35.882812 -1.410156 C 36.292969 -1.878906 36.585938 -2.347656 36.820312 -2.9375 C 37.054688 -3.523438 37.171875 -4.050781 37.171875 -4.582031 C 37.171875 -5.8125 36.644531 -6.929688 35.644531 -7.871094 L 20.320312 -21.90625 L 32.886719 -33.53125 C 33.414062 -34 33.824219 -34.53125 34.058594 -35.117188 C 34.296875 -35.703125 34.414062 -36.351562 34.414062 -36.9375 C 34.414062 -37.40625 34.296875 -37.9375 34.121094 -38.523438 C 33.882812 -39.050781 33.589844 -39.582031 33.238281 -40.050781 C 32.828125 -40.519531 32.296875 -40.871094 31.710938 -41.167969 C 31.125 -41.460938 30.417969 -41.636719 29.597656 -41.636719 C 28.832031 -41.636719 28.1875 -41.519531 27.601562 -41.285156 C 27.011719 -41.046875 26.542969 -40.695312 26.132812 -40.285156 Z M 14.328125 -29.421875 "/></g></g></g><g fill="#fdf2e5" fill-opacity="0.302"><g transform="translate(210.950559, 54.843453)"><g><path d="M 9.335938 0 L 25.957031 0 C 26.777344 0 27.484375 -0.117188 28.128906 -0.410156 C 28.714844 -0.703125 29.246094 -1.058594 29.65625 -1.527344 C 30.066406 -1.996094 30.359375 -2.464844 30.597656 -3.054688 C 30.773438 -3.582031 30.890625 -4.109375 30.890625 -4.640625 C 30.890625 -5.167969 30.773438 -5.695312 30.535156 -6.285156 C 30.300781 -6.8125 30.007812 -7.28125 29.597656 -7.75 C 29.128906 -8.164062 28.597656 -8.515625 28.011719 -8.808594 C 27.425781 -9.101562 26.71875 -9.277344 25.898438 -9.277344 L 14.976562 -9.277344 C 14.859375 -9.277344 14.679688 -9.335938 14.503906 -9.453125 C 14.269531 -9.570312 14.210938 -9.808594 14.210938 -10.160156 L 14.210938 -16.265625 C 14.210938 -16.558594 14.269531 -16.796875 14.503906 -16.972656 C 14.679688 -17.089844 14.859375 -17.207031 14.976562 -17.207031 L 22.84375 -17.207031 C 23.667969 -17.207031 24.371094 -17.324219 24.957031 -17.617188 C 25.546875 -17.910156 26.074219 -18.261719 26.484375 -18.734375 C 26.894531 -19.203125 27.191406 -19.671875 27.425781 -20.261719 C 27.660156 -20.789062 27.777344 -21.316406 27.777344 -21.84375 C 27.777344 -22.375 27.660156 -22.902344 27.425781 -23.488281 C 27.191406 -24.019531 26.894531 -24.488281 26.484375 -24.957031 C 26.015625 -25.371094 25.488281 -25.722656 24.898438 -26.015625 C 24.3125 -26.308594 23.609375 -26.484375 22.785156 -26.484375 L 14.917969 -26.484375 C 14.796875 -26.484375 14.621094 -26.542969 14.445312 -26.660156 C 14.210938 -26.777344 14.152344 -27.011719 14.152344 -27.367188 L 14.152344 -31.417969 C 14.152344 -31.710938 14.210938 -31.945312 14.445312 -32.121094 C 14.621094 -32.238281 14.796875 -32.359375 14.917969 -32.359375 L 25.839844 -32.359375 C 26.660156 -32.359375 27.367188 -32.476562 28.011719 -32.769531 C 28.597656 -33.0625 29.128906 -33.414062 29.539062 -33.882812 C 29.949219 -34.296875 30.242188 -34.765625 30.476562 -35.351562 C 30.65625 -35.882812 30.773438 -36.410156 30.773438 -36.9375 C 30.773438 -37.464844 30.65625 -37.996094 30.417969 -38.582031 C 30.183594 -39.109375 29.890625 -39.582031 29.480469 -40.050781 C 29.011719 -40.460938 28.480469 -40.8125 27.894531 -41.109375 C 27.308594 -41.402344 26.601562 -41.578125 25.78125 -41.578125 L 9.160156 -41.578125 C 8.339844 -41.578125 7.574219 -41.402344 6.988281 -41.109375 C 6.402344 -40.8125 5.871094 -40.460938 5.460938 -39.992188 C 4.992188 -39.523438 4.699219 -39.050781 4.464844 -38.523438 C 4.226562 -37.9375 4.167969 -37.40625 4.167969 -36.9375 L 4.167969 -4.582031 C 4.167969 -3.992188 4.285156 -3.40625 4.523438 -2.878906 C 4.757812 -2.289062 5.109375 -1.820312 5.578125 -1.410156 C 6.046875 -0.941406 6.578125 -0.585938 7.222656 -0.351562 C 7.871094 -0.117188 8.574219 0 9.335938 0 Z M 9.335938 0 "/></g></g></g><g fill="#fdf2e5" fill-opacity="0.302"><g transform="translate(246.301609, 54.843453)"><g><path d="M 20.964844 -27.71875 L 13.683594 -39.40625 C 13.214844 -39.992188 12.625 -40.519531 11.921875 -40.988281 C 11.214844 -41.402344 10.335938 -41.636719 9.394531 -41.636719 C 8.574219 -41.636719 7.808594 -41.460938 7.222656 -41.167969 C 6.636719 -40.871094 6.105469 -40.519531 5.695312 -40.050781 C 5.285156 -39.582031 4.992188 -39.109375 4.757812 -38.582031 C 4.523438 -37.996094 4.464844 -37.464844 4.464844 -36.996094 C 4.464844 -36.175781 4.699219 -35.351562 5.167969 -34.589844 L 15.796875 -17.617188 C 15.914062 -17.5 15.972656 -17.324219 15.972656 -17.089844 L 15.972656 -4.640625 C 15.972656 -4.109375 16.03125 -3.582031 16.265625 -3.054688 C 16.5 -2.464844 16.796875 -1.996094 17.207031 -1.527344 C 17.617188 -1.058594 18.144531 -0.644531 18.792969 -0.351562 C 19.378906 -0.0585938 20.144531 0.0585938 20.964844 0.0585938 C 21.785156 0.0585938 22.492188 -0.0585938 23.078125 -0.351562 C 23.667969 -0.644531 24.195312 -1 24.605469 -1.46875 C 25.015625 -1.9375 25.308594 -2.40625 25.546875 -2.996094 C 25.78125 -3.523438 25.898438 -4.050781 25.898438 -4.582031 L 25.898438 -17.03125 C 25.898438 -17.265625 25.957031 -17.441406 26.074219 -17.558594 L 36.703125 -34.53125 C 37.171875 -35.292969 37.40625 -36.117188 37.40625 -36.9375 C 37.40625 -37.40625 37.289062 -37.9375 37.113281 -38.523438 C 36.878906 -39.050781 36.585938 -39.523438 36.175781 -39.992188 C 35.761719 -40.460938 35.234375 -40.8125 34.648438 -41.109375 C 34 -41.402344 33.296875 -41.578125 32.476562 -41.578125 C 31.476562 -41.578125 30.597656 -41.34375 29.890625 -40.929688 C 29.1875 -40.460938 28.597656 -39.933594 28.246094 -39.347656 Z M 20.964844 -27.71875 "/></g></g></g><g fill="#fdf2e5" fill-opacity="0.502"><g transform="translate(6.369059, 55.546726)"><g><path d="M 14.210938 -24.664062 L 22.023438 -16.558594 C 22.316406 -16.207031 22.667969 -15.972656 23.136719 -15.738281 C 23.609375 -15.503906 24.078125 -15.386719 24.664062 -15.386719 C 25.25 -15.386719 25.722656 -15.503906 26.191406 -15.738281 C 26.660156 -15.972656 27.011719 -16.207031 27.367188 -16.558594 L 35.175781 -24.664062 L 35.175781 -4.523438 C 35.175781 -3.992188 35.234375 -3.464844 35.46875 -2.9375 C 35.703125 -2.347656 36 -1.878906 36.410156 -1.410156 C 36.820312 -0.941406 37.347656 -0.527344 37.9375 -0.234375 C 38.523438 0.0585938 39.285156 0.175781 40.109375 0.175781 C 40.929688 0.175781 41.636719 0.0585938 42.222656 -0.234375 C 42.808594 -0.527344 43.339844 -0.882812 43.75 -1.351562 C 44.160156 -1.820312 44.453125 -2.289062 44.691406 -2.878906 C 44.925781 -3.40625 45.042969 -3.933594 45.042969 -4.464844 L 45.042969 -36.820312 C 45.042969 -37.347656 44.925781 -37.878906 44.691406 -38.40625 C 44.453125 -38.933594 44.160156 -39.40625 43.75 -39.875 C 43.28125 -40.34375 42.75 -40.695312 42.164062 -40.988281 C 41.578125 -41.226562 40.871094 -41.402344 40.050781 -41.402344 C 39.285156 -41.402344 38.582031 -41.226562 37.9375 -40.988281 C 37.289062 -40.695312 36.761719 -40.34375 36.351562 -39.933594 L 24.546875 -27.601562 L 13.035156 -40.050781 C 12.097656 -41.046875 10.863281 -41.578125 9.335938 -41.578125 C 8.515625 -41.578125 7.75 -41.402344 7.164062 -41.109375 C 6.578125 -40.8125 6.046875 -40.460938 5.636719 -39.992188 C 5.167969 -39.523438 4.875 -39.050781 4.640625 -38.523438 C 4.40625 -37.9375 4.34375 -37.40625 4.34375 -36.9375 L 4.34375 -4.582031 C 4.34375 -4.050781 4.40625 -3.523438 4.640625 -2.996094 C 4.875 -2.40625 5.167969 -1.9375 5.578125 -1.46875 C 5.988281 -1 6.519531 -0.585938 7.105469 -0.292969 C 7.691406 0 8.457031 0.117188 9.277344 0.117188 C 10.101562 0.117188 10.804688 0 11.453125 -0.292969 C 12.039062 -0.585938 12.566406 -0.941406 12.976562 -1.410156 C 13.390625 -1.878906 13.683594 -2.347656 13.917969 -2.9375 C 14.09375 -3.464844 14.210938 -3.992188 14.210938 -4.523438 Z M 14.210938 -24.664062 "/></g></g></g><g fill="#fdf2e5" fill-opacity="0.502"><g transform="translate(56.048444, 55.546726)"><g><path d="M 28.480469 -37.996094 C 28.128906 -38.933594 27.425781 -39.757812 26.484375 -40.519531 C 25.488281 -41.226562 24.3125 -41.636719 22.960938 -41.636719 C 21.550781 -41.636719 20.378906 -41.226562 19.378906 -40.519531 C 18.382812 -39.816406 17.675781 -38.933594 17.324219 -37.996094 L 4.699219 -6.285156 C 4.464844 -5.753906 4.40625 -5.226562 4.40625 -4.640625 C 4.40625 -4.109375 4.464844 -3.582031 4.699219 -3.054688 C 4.933594 -2.464844 5.226562 -1.996094 5.636719 -1.585938 C 6.046875 -1.117188 6.578125 -0.761719 7.222656 -0.46875 C 7.808594 -0.175781 8.515625 -0.0585938 9.335938 -0.0585938 C 10.511719 -0.0585938 11.511719 -0.351562 12.332031 -1 C 13.09375 -1.585938 13.625 -2.289062 13.976562 -3.113281 L 17.265625 -11.394531 C 17.324219 -11.511719 17.441406 -11.628906 17.558594 -11.746094 C 17.675781 -11.804688 17.851562 -11.863281 17.96875 -11.863281 L 27.894531 -11.863281 C 28.128906 -11.863281 28.363281 -11.6875 28.597656 -11.394531 L 31.828125 -3.113281 C 32.121094 -2.289062 32.652344 -1.585938 33.472656 -1 C 34.238281 -0.351562 35.234375 -0.0585938 36.46875 -0.0585938 C 37.289062 -0.0585938 37.996094 -0.175781 38.582031 -0.46875 C 39.167969 -0.761719 39.699219 -1.117188 40.167969 -1.585938 C 40.578125 -1.996094 40.871094 -2.464844 41.109375 -3.054688 C 41.34375 -3.582031 41.460938 -4.109375 41.460938 -4.640625 C 41.460938 -5.226562 41.34375 -5.8125 41.109375 -6.285156 Z M 22.902344 -25.429688 C 23.019531 -25.074219 23.136719 -24.78125 23.253906 -24.488281 C 23.371094 -24.136719 23.546875 -23.84375 23.667969 -23.488281 C 23.785156 -23.078125 23.960938 -22.726562 24.136719 -22.375 C 24.253906 -22.023438 24.371094 -21.667969 24.488281 -21.375 C 24.546875 -21.199219 24.605469 -21.082031 24.605469 -21.082031 L 21.082031 -21.082031 C 21.140625 -21.140625 21.199219 -21.199219 21.199219 -21.316406 C 21.433594 -22.023438 21.726562 -22.667969 22.023438 -23.371094 C 22.257812 -24.078125 22.550781 -24.722656 22.902344 -25.429688 Z M 22.902344 -25.429688 "/></g></g></g><g fill="#fdf2e5" fill-opacity="0.502"><g transform="translate(101.852126, 55.546726)"><g><path d="M 25.605469 -17.558594 C 27.835938 -18.792969 29.597656 -20.320312 30.832031 -22.082031 C 32.003906 -23.84375 32.652344 -26.132812 32.652344 -28.832031 C 32.652344 -30.417969 32.296875 -32.003906 31.710938 -33.53125 C 31.125 -35.058594 30.242188 -36.46875 29.070312 -37.703125 C 27.894531 -38.875 26.484375 -39.875 24.78125 -40.578125 C 23.078125 -41.285156 21.140625 -41.695312 18.96875 -41.695312 L 9.394531 -41.695312 C 8.574219 -41.695312 7.808594 -41.519531 7.222656 -41.226562 C 6.636719 -40.929688 6.105469 -40.578125 5.695312 -40.109375 C 5.226562 -39.640625 4.933594 -39.167969 4.699219 -38.640625 C 4.464844 -38.054688 4.40625 -37.523438 4.40625 -36.996094 L 4.40625 -4.699219 C 4.40625 -4.167969 4.464844 -3.640625 4.699219 -3.113281 C 4.933594 -2.523438 5.226562 -2.054688 5.636719 -1.585938 C 6.046875 -1.117188 6.578125 -0.703125 7.164062 -0.410156 C 7.75 -0.117188 8.515625 0 9.335938 0 C 10.160156 0 10.863281 -0.117188 11.511719 -0.410156 C 12.097656 -0.703125 12.625 -1.058594 13.035156 -1.527344 C 13.449219 -1.996094 13.742188 -2.464844 13.976562 -3.054688 C 14.152344 -3.582031 14.269531 -4.109375 14.269531 -4.640625 L 14.269531 -15.386719 C 14.269531 -15.621094 14.328125 -15.796875 14.445312 -15.855469 C 14.5625 -15.914062 14.621094 -15.972656 14.679688 -15.972656 C 14.917969 -15.972656 15.210938 -15.796875 15.445312 -15.503906 L 23.667969 -2.289062 C 24.078125 -1.585938 24.664062 -1.058594 25.371094 -0.644531 C 26.074219 -0.175781 26.953125 0 27.953125 0 C 28.773438 0 29.480469 -0.117188 30.066406 -0.410156 C 30.65625 -0.703125 31.183594 -1.058594 31.59375 -1.527344 C 32.003906 -1.9375 32.296875 -2.40625 32.535156 -2.996094 C 32.769531 -3.582031 32.886719 -4.109375 32.886719 -4.640625 C 32.886719 -5.460938 32.652344 -6.285156 32.179688 -6.988281 C 31.945312 -7.28125 31.476562 -7.988281 30.773438 -9.160156 C 30.066406 -10.277344 29.304688 -11.511719 28.480469 -12.859375 C 28.011719 -13.507812 27.601562 -14.152344 27.25 -14.738281 C 26.894531 -15.328125 26.542969 -15.914062 26.25 -16.382812 C 25.898438 -16.855469 25.722656 -17.265625 25.605469 -17.558594 Z M 14.210938 -26.25 L 14.210938 -31.417969 C 14.210938 -31.710938 14.269531 -31.945312 14.503906 -32.121094 C 14.679688 -32.238281 14.859375 -32.359375 14.976562 -32.359375 L 18.851562 -32.359375 C 20.023438 -32.359375 20.964844 -32.003906 21.609375 -31.417969 C 22.257812 -30.832031 22.609375 -29.949219 22.609375 -28.832031 C 22.609375 -27.660156 22.257812 -26.777344 21.609375 -26.191406 C 20.964844 -25.605469 20.023438 -25.308594 18.851562 -25.308594 L 14.976562 -25.308594 C 14.859375 -25.308594 14.679688 -25.371094 14.503906 -25.546875 C 14.269531 -25.664062 14.210938 -25.898438 14.210938 -26.25 Z M 14.210938 -26.25 "/></g></g></g><g fill="#fdf2e5" fill-opacity="0.502"><g transform="translate(139.317186, 55.546726)"><g><path d="M 23.371094 -20.203125 C 23.371094 -20.613281 23.253906 -21.082031 23.078125 -21.550781 C 22.902344 -22.023438 22.609375 -22.433594 22.257812 -22.785156 C 21.90625 -23.136719 21.433594 -23.488281 20.90625 -23.726562 C 20.378906 -23.960938 19.789062 -24.136719 19.085938 -24.136719 L 8.632812 -24.136719 C 7.929688 -24.136719 7.28125 -23.960938 6.753906 -23.726562 C 6.226562 -23.488281 5.8125 -23.136719 5.460938 -22.785156 C 5.109375 -22.433594 4.816406 -22.023438 4.640625 -21.550781 C 4.464844 -21.082031 4.40625 -20.613281 4.40625 -20.203125 C 4.40625 -19.730469 4.464844 -19.320312 4.640625 -18.851562 C 4.816406 -18.382812 5.109375 -17.910156 5.460938 -17.558594 C 5.8125 -17.207031 6.226562 -16.855469 6.753906 -16.621094 C 7.28125 -16.382812 7.929688 -16.265625 8.632812 -16.265625 L 19.085938 -16.265625 C 19.789062 -16.265625 20.378906 -16.382812 20.90625 -16.621094 C 21.433594 -16.855469 21.90625 -17.207031 22.257812 -17.558594 C 22.609375 -17.910156 22.902344 -18.382812 23.078125 -18.851562 C 23.253906 -19.320312 23.371094 -19.730469 23.371094 -20.203125 Z M 23.371094 -20.203125 "/></g></g></g><g fill="#fdf2e5" fill-opacity="0.502"><g transform="translate(167.034283, 55.546726)"><g><path d="M 14.328125 -29.421875 L 14.328125 -36.996094 C 14.328125 -37.523438 14.210938 -38.054688 13.976562 -38.640625 C 13.742188 -39.167969 13.449219 -39.640625 13.035156 -40.109375 C 12.566406 -40.519531 12.039062 -40.871094 11.453125 -41.167969 C 10.863281 -41.460938 10.160156 -41.636719 9.335938 -41.636719 C 8.515625 -41.636719 7.75 -41.460938 7.164062 -41.167969 C 6.578125 -40.871094 6.046875 -40.519531 5.636719 -40.050781 C 5.167969 -39.582031 4.875 -39.109375 4.640625 -38.582031 C 4.40625 -37.996094 4.34375 -37.464844 4.34375 -36.9375 L 4.34375 -4.640625 C 4.34375 -4.109375 4.40625 -3.582031 4.640625 -3.054688 C 4.875 -2.464844 5.167969 -1.996094 5.578125 -1.527344 C 5.988281 -1.058594 6.519531 -0.644531 7.105469 -0.351562 C 7.691406 -0.0585938 8.457031 0.0585938 9.277344 0.0585938 C 10.101562 0.0585938 10.804688 -0.0585938 11.453125 -0.351562 C 12.039062 -0.644531 12.566406 -1 12.976562 -1.46875 C 13.390625 -1.9375 13.683594 -2.40625 13.917969 -2.996094 C 14.09375 -3.523438 14.210938 -4.050781 14.210938 -4.582031 L 14.210938 -14.5625 L 28.714844 -1.234375 C 29.128906 -0.820312 29.597656 -0.46875 30.183594 -0.234375 C 30.773438 0 31.417969 0.117188 32.179688 0.117188 C 33.003906 0.117188 33.707031 0 34.355469 -0.292969 C 34.941406 -0.585938 35.46875 -0.941406 35.882812 -1.410156 C 36.292969 -1.878906 36.585938 -2.347656 36.820312 -2.9375 C 37.054688 -3.523438 37.171875 -4.050781 37.171875 -4.582031 C 37.171875 -5.8125 36.644531 -6.929688 35.644531 -7.871094 L 20.320312 -21.90625 L 32.886719 -33.53125 C 33.414062 -34 33.824219 -34.53125 34.058594 -35.117188 C 34.296875 -35.703125 34.414062 -36.351562 34.414062 -36.9375 C 34.414062 -37.40625 34.296875 -37.9375 34.121094 -38.523438 C 33.882812 -39.050781 33.589844 -39.582031 33.238281 -40.050781 C 32.828125 -40.519531 32.296875 -40.871094 31.710938 -41.167969 C 31.125 -41.460938 30.417969 -41.636719 29.597656 -41.636719 C 28.832031 -41.636719 28.1875 -41.519531 27.601562 -41.285156 C 27.011719 -41.046875 26.542969 -40.695312 26.132812 -40.285156 Z M 14.328125 -29.421875 "/></g></g></g><g fill="#fdf2e5" fill-opacity="0.502"><g transform="translate(208.786104, 55.546726)"><g><path d="M 9.335938 0 L 25.957031 0 C 26.777344 0 27.484375 -0.117188 28.128906 -0.410156 C 28.714844 -0.703125 29.246094 -1.058594 29.65625 -1.527344 C 30.066406 -1.996094 30.359375 -2.464844 30.597656 -3.054688 C 30.773438 -3.582031 30.890625 -4.109375 30.890625 -4.640625 C 30.890625 -5.167969 30.773438 -5.695312 30.535156 -6.285156 C 30.300781 -6.8125 30.007812 -7.28125 29.597656 -7.75 C 29.128906 -8.164062 28.597656 -8.515625 28.011719 -8.808594 C 27.425781 -9.101562 26.71875 -9.277344 25.898438 -9.277344 L 14.976562 -9.277344 C 14.859375 -9.277344 14.679688 -9.335938 14.503906 -9.453125 C 14.269531 -9.570312 14.210938 -9.808594 14.210938 -10.160156 L 14.210938 -16.265625 C 14.210938 -16.558594 14.269531 -16.796875 14.503906 -16.972656 C 14.679688 -17.089844 14.859375 -17.207031 14.976562 -17.207031 L 22.84375 -17.207031 C 23.667969 -17.207031 24.371094 -17.324219 24.957031 -17.617188 C 25.546875 -17.910156 26.074219 -18.261719 26.484375 -18.734375 C 26.894531 -19.203125 27.191406 -19.671875 27.425781 -20.261719 C 27.660156 -20.789062 27.777344 -21.316406 27.777344 -21.84375 C 27.777344 -22.375 27.660156 -22.902344 27.425781 -23.488281 C 27.191406 -24.019531 26.894531 -24.488281 26.484375 -24.957031 C 26.015625 -25.371094 25.488281 -25.722656 24.898438 -26.015625 C 24.3125 -26.308594 23.609375 -26.484375 22.785156 -26.484375 L 14.917969 -26.484375 C 14.796875 -26.484375 14.621094 -26.542969 14.445312 -26.660156 C 14.210938 -26.777344 14.152344 -27.011719 14.152344 -27.367188 L 14.152344 -31.417969 C 14.152344 -31.710938 14.210938 -31.945312 14.445312 -32.121094 C 14.621094 -32.238281 14.796875 -32.359375 14.917969 -32.359375 L 25.839844 -32.359375 C 26.660156 -32.359375 27.367188 -32.476562 28.011719 -32.769531 C 28.597656 -33.0625 29.128906 -33.414062 29.539062 -33.882812 C 29.949219 -34.296875 30.242188 -34.765625 30.476562 -35.351562 C 30.65625 -35.882812 30.773438 -36.410156 30.773438 -36.9375 C 30.773438 -37.464844 30.65625 -37.996094 30.417969 -38.582031 C 30.183594 -39.109375 29.890625 -39.582031 29.480469 -40.050781 C 29.011719 -40.460938 28.480469 -40.8125 27.894531 -41.109375 C 27.308594 -41.402344 26.601562 -41.578125 25.78125 -41.578125 L 9.160156 -41.578125 C 8.339844 -41.578125 7.574219 -41.402344 6.988281 -41.109375 C 6.402344 -40.8125 5.871094 -40.460938 5.460938 -39.992188 C 4.992188 -39.523438 4.699219 -39.050781 4.464844 -38.523438 C 4.226562 -37.9375 4.167969 -37.40625 4.167969 -36.9375 L 4.167969 -4.582031 C 4.167969 -3.992188 4.285156 -3.40625 4.523438 -2.878906 C 4.757812 -2.289062 5.109375 -1.820312 5.578125 -1.410156 C 6.046875 -0.941406 6.578125 -0.585938 7.222656 -0.351562 C 7.871094 -0.117188 8.574219 0 9.335938 0 Z M 9.335938 0 "/></g></g></g><g fill="#fdf2e5" fill-opacity="0.502"><g transform="translate(244.137154, 55.546726)"><g><path d="M 20.964844 -27.71875 L 13.683594 -39.40625 C 13.214844 -39.992188 12.625 -40.519531 11.921875 -40.988281 C 11.214844 -41.402344 10.335938 -41.636719 9.394531 -41.636719 C 8.574219 -41.636719 7.808594 -41.460938 7.222656 -41.167969 C 6.636719 -40.871094 6.105469 -40.519531 5.695312 -40.050781 C 5.285156 -39.582031 4.992188 -39.109375 4.757812 -38.582031 C 4.523438 -37.996094 4.464844 -37.464844 4.464844 -36.996094 C 4.464844 -36.175781 4.699219 -35.351562 5.167969 -34.589844 L 15.796875 -17.617188 C 15.914062 -17.5 15.972656 -17.324219 15.972656 -17.089844 L 15.972656 -4.640625 C 15.972656 -4.109375 16.03125 -3.582031 16.265625 -3.054688 C 16.5 -2.464844 16.796875 -1.996094 17.207031 -1.527344 C 17.617188 -1.058594 18.144531 -0.644531 18.792969 -0.351562 C 19.378906 -0.0585938 20.144531 0.0585938 20.964844 0.0585938 C 21.785156 0.0585938 22.492188 -0.0585938 23.078125 -0.351562 C 23.667969 -0.644531 24.195312 -1 24.605469 -1.46875 C 25.015625 -1.9375 25.308594 -2.40625 25.546875 -2.996094 C 25.78125 -3.523438 25.898438 -4.050781 25.898438 -4.582031 L 25.898438 -17.03125 C 25.898438 -17.265625 25.957031 -17.441406 26.074219 -17.558594 L 36.703125 -34.53125 C 37.171875 -35.292969 37.40625 -36.117188 37.40625 -36.9375 C 37.40625 -37.40625 37.289062 -37.9375 37.113281 -38.523438 C 36.878906 -39.050781 36.585938 -39.523438 36.175781 -39.992188 C 35.761719 -40.460938 35.234375 -40.8125 34.648438 -41.109375 C 34 -41.402344 33.296875 -41.578125 32.476562 -41.578125 C 31.476562 -41.578125 30.597656 -41.34375 29.890625 -40.929688 C 29.1875 -40.460938 28.597656 -39.933594 28.246094 -39.347656 Z M 20.964844 -27.71875 "/></g></g></g><g fill="#ade5ea" fill-opacity="1"><g transform="translate(4.204607, 56.25)"><g><path d="M 14.210938 -24.664062 L 22.023438 -16.558594 C 22.316406 -16.207031 22.667969 -15.972656 23.136719 -15.738281 C 23.609375 -15.503906 24.078125 -15.386719 24.664062 -15.386719 C 25.25 -15.386719 25.722656 -15.503906 26.191406 -15.738281 C 26.660156 -15.972656 27.011719 -16.207031 27.367188 -16.558594 L 35.175781 -24.664062 L 35.175781 -4.523438 C 35.175781 -3.992188 35.234375 -3.464844 35.46875 -2.9375 C 35.703125 -2.347656 36 -1.878906 36.410156 -1.410156 C 36.820312 -0.941406 37.347656 -0.527344 37.9375 -0.234375 C 38.523438 0.0585938 39.285156 0.175781 40.109375 0.175781 C 40.929688 0.175781 41.636719 0.0585938 42.222656 -0.234375 C 42.808594 -0.527344 43.339844 -0.882812 43.75 -1.351562 C 44.160156 -1.820312 44.453125 -2.289062 44.691406 -2.878906 C 44.925781 -3.40625 45.042969 -3.933594 45.042969 -4.464844 L 45.042969 -36.820312 C 45.042969 -37.347656 44.925781 -37.878906 44.691406 -38.40625 C 44.453125 -38.933594 44.160156 -39.40625 43.75 -39.875 C 43.28125 -40.34375 42.75 -40.695312 42.164062 -40.988281 C 41.578125 -41.226562 40.871094 -41.402344 40.050781 -41.402344 C 39.285156 -41.402344 38.582031 -41.226562 37.9375 -40.988281 C 37.289062 -40.695312 36.761719 -40.34375 36.351562 -39.933594 L 24.546875 -27.601562 L 13.035156 -40.050781 C 12.097656 -41.046875 10.863281 -41.578125 9.335938 -41.578125 C 8.515625 -41.578125 7.75 -41.402344 7.164062 -41.109375 C 6.578125 -40.8125 6.046875 -40.460938 5.636719 -39.992188 C 5.167969 -39.523438 4.875 -39.050781 4.640625 -38.523438 C 4.40625 -37.9375 4.34375 -37.40625 4.34375 -36.9375 L 4.34375 -4.582031 C 4.34375 -4.050781 4.40625 -3.523438 4.640625 -2.996094 C 4.875 -2.40625 5.167969 -1.9375 5.578125 -1.46875 C 5.988281 -1 6.519531 -0.585938 7.105469 -0.292969 C 7.691406 0 8.457031 0.117188 9.277344 0.117188 C 10.101562 0.117188 10.804688 0 11.453125 -0.292969 C 12.039062 -0.585938 12.566406 -0.941406 12.976562 -1.410156 C 13.390625 -1.878906 13.683594 -2.347656 13.917969 -2.9375 C 14.09375 -3.464844 14.210938 -3.992188 14.210938 -4.523438 Z M 14.210938 -24.664062 "/></g></g></g><g fill="#ade5ea" fill-opacity="1"><g transform="translate(53.883992, 56.25)"><g><path d="M 28.480469 -37.996094 C 28.128906 -38.933594 27.425781 -39.757812 26.484375 -40.519531 C 25.488281 -41.226562 24.3125 -41.636719 22.960938 -41.636719 C 21.550781 -41.636719 20.378906 -41.226562 19.378906 -40.519531 C 18.382812 -39.816406 17.675781 -38.933594 17.324219 -37.996094 L 4.699219 -6.285156 C 4.464844 -5.753906 4.40625 -5.226562 4.40625 -4.640625 C 4.40625 -4.109375 4.464844 -3.582031 4.699219 -3.054688 C 4.933594 -2.464844 5.226562 -1.996094 5.636719 -1.585938 C 6.046875 -1.117188 6.578125 -0.761719 7.222656 -0.46875 C 7.808594 -0.175781 8.515625 -0.0585938 9.335938 -0.0585938 C 10.511719 -0.0585938 11.511719 -0.351562 12.332031 -1 C 13.09375 -1.585938 13.625 -2.289062 13.976562 -3.113281 L 17.265625 -11.394531 C 17.324219 -11.511719 17.441406 -11.628906 17.558594 -11.746094 C 17.675781 -11.804688 17.851562 -11.863281 17.96875 -11.863281 L 27.894531 -11.863281 C 28.128906 -11.863281 28.363281 -11.6875 28.597656 -11.394531 L 31.828125 -3.113281 C 32.121094 -2.289062 32.652344 -1.585938 33.472656 -1 C 34.238281 -0.351562 35.234375 -0.0585938 36.46875 -0.0585938 C 37.289062 -0.0585938 37.996094 -0.175781 38.582031 -0.46875 C 39.167969 -0.761719 39.699219 -1.117188 40.167969 -1.585938 C 40.578125 -1.996094 40.871094 -2.464844 41.109375 -3.054688 C 41.34375 -3.582031 41.460938 -4.109375 41.460938 -4.640625 C 41.460938 -5.226562 41.34375 -5.8125 41.109375 -6.285156 Z M 22.902344 -25.429688 C 23.019531 -25.074219 23.136719 -24.78125 23.253906 -24.488281 C 23.371094 -24.136719 23.546875 -23.84375 23.667969 -23.488281 C 23.785156 -23.078125 23.960938 -22.726562 24.136719 -22.375 C 24.253906 -22.023438 24.371094 -21.667969 24.488281 -21.375 C 24.546875 -21.199219 24.605469 -21.082031 24.605469 -21.082031 L 21.082031 -21.082031 C 21.140625 -21.140625 21.199219 -21.199219 21.199219 -21.316406 C 21.433594 -22.023438 21.726562 -22.667969 22.023438 -23.371094 C 22.257812 -24.078125 22.550781 -24.722656 22.902344 -25.429688 Z M 22.902344 -25.429688 "/></g></g></g><g fill="#ade5ea" fill-opacity="1"><g transform="translate(99.687674, 56.25)"><g><path d="M 25.605469 -17.558594 C 27.835938 -18.792969 29.597656 -20.320312 30.832031 -22.082031 C 32.003906 -23.84375 32.652344 -26.132812 32.652344 -28.832031 C 32.652344 -30.417969 32.296875 -32.003906 31.710938 -33.53125 C 31.125 -35.058594 30.242188 -36.46875 29.070312 -37.703125 C 27.894531 -38.875 26.484375 -39.875 24.78125 -40.578125 C 23.078125 -41.285156 21.140625 -41.695312 18.96875 -41.695312 L 9.394531 -41.695312 C 8.574219 -41.695312 7.808594 -41.519531 7.222656 -41.226562 C 6.636719 -40.929688 6.105469 -40.578125 5.695312 -40.109375 C 5.226562 -39.640625 4.933594 -39.167969 4.699219 -38.640625 C 4.464844 -38.054688 4.40625 -37.523438 4.40625 -36.996094 L 4.40625 -4.699219 C 4.40625 -4.167969 4.464844 -3.640625 4.699219 -3.113281 C 4.933594 -2.523438 5.226562 -2.054688 5.636719 -1.585938 C 6.046875 -1.117188 6.578125 -0.703125 7.164062 -0.410156 C 7.75 -0.117188 8.515625 0 9.335938 0 C 10.160156 0 10.863281 -0.117188 11.511719 -0.410156 C 12.097656 -0.703125 12.625 -1.058594 13.035156 -1.527344 C 13.449219 -1.996094 13.742188 -2.464844 13.976562 -3.054688 C 14.152344 -3.582031 14.269531 -4.109375 14.269531 -4.640625 L 14.269531 -15.386719 C 14.269531 -15.621094 14.328125 -15.796875 14.445312 -15.855469 C 14.5625 -15.914062 14.621094 -15.972656 14.679688 -15.972656 C 14.917969 -15.972656 15.210938 -15.796875 15.445312 -15.503906 L 23.667969 -2.289062 C 24.078125 -1.585938 24.664062 -1.058594 25.371094 -0.644531 C 26.074219 -0.175781 26.953125 0 27.953125 0 C 28.773438 0 29.480469 -0.117188 30.066406 -0.410156 C 30.65625 -0.703125 31.183594 -1.058594 31.59375 -1.527344 C 32.003906 -1.9375 32.296875 -2.40625 32.535156 -2.996094 C 32.769531 -3.582031 32.886719 -4.109375 32.886719 -4.640625 C 32.886719 -5.460938 32.652344 -6.285156 32.179688 -6.988281 C 31.945312 -7.28125 31.476562 -7.988281 30.773438 -9.160156 C 30.066406 -10.277344 29.304688 -11.511719 28.480469 -12.859375 C 28.011719 -13.507812 27.601562 -14.152344 27.25 -14.738281 C 26.894531 -15.328125 26.542969 -15.914062 26.25 -16.382812 C 25.898438 -16.855469 25.722656 -17.265625 25.605469 -17.558594 Z M 14.210938 -26.25 L 14.210938 -31.417969 C 14.210938 -31.710938 14.269531 -31.945312 14.503906 -32.121094 C 14.679688 -32.238281 14.859375 -32.359375 14.976562 -32.359375 L 18.851562 -32.359375 C 20.023438 -32.359375 20.964844 -32.003906 21.609375 -31.417969 C 22.257812 -30.832031 22.609375 -29.949219 22.609375 -28.832031 C 22.609375 -27.660156 22.257812 -26.777344 21.609375 -26.191406 C 20.964844 -25.605469 20.023438 -25.308594 18.851562 -25.308594 L 14.976562 -25.308594 C 14.859375 -25.308594 14.679688 -25.371094 14.503906 -25.546875 C 14.269531 -25.664062 14.210938 -25.898438 14.210938 -26.25 Z M 14.210938 -26.25 "/></g></g></g><g fill="#ade5ea" fill-opacity="1"><g transform="translate(137.152734, 56.25)"><g><path d="M 23.371094 -20.203125 C 23.371094 -20.613281 23.253906 -21.082031 23.078125 -21.550781 C 22.902344 -22.023438 22.609375 -22.433594 22.257812 -22.785156 C 21.90625 -23.136719 21.433594 -23.488281 20.90625 -23.726562 C 20.378906 -23.960938 19.789062 -24.136719 19.085938 -24.136719 L 8.632812 -24.136719 C 7.929688 -24.136719 7.28125 -23.960938 6.753906 -23.726562 C 6.226562 -23.488281 5.8125 -23.136719 5.460938 -22.785156 C 5.109375 -22.433594 4.816406 -22.023438 4.640625 -21.550781 C 4.464844 -21.082031 4.40625 -20.613281 4.40625 -20.203125 C 4.40625 -19.730469 4.464844 -19.320312 4.640625 -18.851562 C 4.816406 -18.382812 5.109375 -17.910156 5.460938 -17.558594 C 5.8125 -17.207031 6.226562 -16.855469 6.753906 -16.621094 C 7.28125 -16.382812 7.929688 -16.265625 8.632812 -16.265625 L 19.085938 -16.265625 C 19.789062 -16.265625 20.378906 -16.382812 20.90625 -16.621094 C 21.433594 -16.855469 21.90625 -17.207031 22.257812 -17.558594 C 22.609375 -17.910156 22.902344 -18.382812 23.078125 -18.851562 C 23.253906 -19.320312 23.371094 -19.730469 23.371094 -20.203125 Z M 23.371094 -20.203125 "/></g></g></g><g fill="#ade5ea" fill-opacity="1"><g transform="translate(164.869831, 56.25)"><g><path d="M 14.328125 -29.421875 L 14.328125 -36.996094 C 14.328125 -37.523438 14.210938 -38.054688 13.976562 -38.640625 C 13.742188 -39.167969 13.449219 -39.640625 13.035156 -40.109375 C 12.566406 -40.519531 12.039062 -40.871094 11.453125 -41.167969 C 10.863281 -41.460938 10.160156 -41.636719 9.335938 -41.636719 C 8.515625 -41.636719 7.75 -41.460938 7.164062 -41.167969 C 6.578125 -40.871094 6.046875 -40.519531 5.636719 -40.050781 C 5.167969 -39.582031 4.875 -39.109375 4.640625 -38.582031 C 4.40625 -37.996094 4.34375 -37.464844 4.34375 -36.9375 L 4.34375 -4.640625 C 4.34375 -4.109375 4.40625 -3.582031 4.640625 -3.054688 C 4.875 -2.464844 5.167969 -1.996094 5.578125 -1.527344 C 5.988281 -1.058594 6.519531 -0.644531 7.105469 -0.351562 C 7.691406 -0.0585938 8.457031 0.0585938 9.277344 0.0585938 C 10.101562 0.0585938 10.804688 -0.0585938 11.453125 -0.351562 C 12.039062 -0.644531 12.566406 -1 12.976562 -1.46875 C 13.390625 -1.9375 13.683594 -2.40625 13.917969 -2.996094 C 14.09375 -3.523438 14.210938 -4.050781 14.210938 -4.582031 L 14.210938 -14.5625 L 28.714844 -1.234375 C 29.128906 -0.820312 29.597656 -0.46875 30.183594 -0.234375 C 30.773438 0 31.417969 0.117188 32.179688 0.117188 C 33.003906 0.117188 33.707031 0 34.355469 -0.292969 C 34.941406 -0.585938 35.46875 -0.941406 35.882812 -1.410156 C 36.292969 -1.878906 36.585938 -2.347656 36.820312 -2.9375 C 37.054688 -3.523438 37.171875 -4.050781 37.171875 -4.582031 C 37.171875 -5.8125 36.644531 -6.929688 35.644531 -7.871094 L 20.320312 -21.90625 L 32.886719 -33.53125 C 33.414062 -34 33.824219 -34.53125 34.058594 -35.117188 C 34.296875 -35.703125 34.414062 -36.351562 34.414062 -36.9375 C 34.414062 -37.40625 34.296875 -37.9375 34.121094 -38.523438 C 33.882812 -39.050781 33.589844 -39.582031 33.238281 -40.050781 C 32.828125 -40.519531 32.296875 -40.871094 31.710938 -41.167969 C 31.125 -41.460938 30.417969 -41.636719 29.597656 -41.636719 C 28.832031 -41.636719 28.1875 -41.519531 27.601562 -41.285156 C 27.011719 -41.046875 26.542969 -40.695312 26.132812 -40.285156 Z M 14.328125 -29.421875 "/></g></g></g><g fill="#ade5ea" fill-opacity="1"><g transform="translate(206.621653, 56.25)"><g><path d="M 9.335938 0 L 25.957031 0 C 26.777344 0 27.484375 -0.117188 28.128906 -0.410156 C 28.714844 -0.703125 29.246094 -1.058594 29.65625 -1.527344 C 30.066406 -1.996094 30.359375 -2.464844 30.597656 -3.054688 C 30.773438 -3.582031 30.890625 -4.109375 30.890625 -4.640625 C 30.890625 -5.167969 30.773438 -5.695312 30.535156 -6.285156 C 30.300781 -6.8125 30.007812 -7.28125 29.597656 -7.75 C 29.128906 -8.164062 28.597656 -8.515625 28.011719 -8.808594 C 27.425781 -9.101562 26.71875 -9.277344 25.898438 -9.277344 L 14.976562 -9.277344 C 14.859375 -9.277344 14.679688 -9.335938 14.503906 -9.453125 C 14.269531 -9.570312 14.210938 -9.808594 14.210938 -10.160156 L 14.210938 -16.265625 C 14.210938 -16.558594 14.269531 -16.796875 14.503906 -16.972656 C 14.679688 -17.089844 14.859375 -17.207031 14.976562 -17.207031 L 22.84375 -17.207031 C 23.667969 -17.207031 24.371094 -17.324219 24.957031 -17.617188 C 25.546875 -17.910156 26.074219 -18.261719 26.484375 -18.734375 C 26.894531 -19.203125 27.191406 -19.671875 27.425781 -20.261719 C 27.660156 -20.789062 27.777344 -21.316406 27.777344 -21.84375 C 27.777344 -22.375 27.660156 -22.902344 27.425781 -23.488281 C 27.191406 -24.019531 26.894531 -24.488281 26.484375 -24.957031 C 26.015625 -25.371094 25.488281 -25.722656 24.898438 -26.015625 C 24.3125 -26.308594 23.609375 -26.484375 22.785156 -26.484375 L 14.917969 -26.484375 C 14.796875 -26.484375 14.621094 -26.542969 14.445312 -26.660156 C 14.210938 -26.777344 14.152344 -27.011719 14.152344 -27.367188 L 14.152344 -31.417969 C 14.152344 -31.710938 14.210938 -31.945312 14.445312 -32.121094 C 14.621094 -32.238281 14.796875 -32.359375 14.917969 -32.359375 L 25.839844 -32.359375 C 26.660156 -32.359375 27.367188 -32.476562 28.011719 -32.769531 C 28.597656 -33.0625 29.128906 -33.414062 29.539062 -33.882812 C 29.949219 -34.296875 30.242188 -34.765625 30.476562 -35.351562 C 30.65625 -35.882812 30.773438 -36.410156 30.773438 -36.9375 C 30.773438 -37.464844 30.65625 -37.996094 30.417969 -38.582031 C 30.183594 -39.109375 29.890625 -39.582031 29.480469 -40.050781 C 29.011719 -40.460938 28.480469 -40.8125 27.894531 -41.109375 C 27.308594 -41.402344 26.601562 -41.578125 25.78125 -41.578125 L 9.160156 -41.578125 C 8.339844 -41.578125 7.574219 -41.402344 6.988281 -41.109375 C 6.402344 -40.8125 5.871094 -40.460938 5.460938 -39.992188 C 4.992188 -39.523438 4.699219 -39.050781 4.464844 -38.523438 C 4.226562 -37.9375 4.167969 -37.40625 4.167969 -36.9375 L 4.167969 -4.582031 C 4.167969 -3.992188 4.285156 -3.40625 4.523438 -2.878906 C 4.757812 -2.289062 5.109375 -1.820312 5.578125 -1.410156 C 6.046875 -0.941406 6.578125 -0.585938 7.222656 -0.351562 C 7.871094 -0.117188 8.574219 0 9.335938 0 Z M 9.335938 0 "/></g></g></g><g fill="#ade5ea" fill-opacity="1"><g transform="translate(241.972702, 56.25)"><g><path d="M 20.964844 -27.71875 L 13.683594 -39.40625 C 13.214844 -39.992188 12.625 -40.519531 11.921875 -40.988281 C 11.214844 -41.402344 10.335938 -41.636719 9.394531 -41.636719 C 8.574219 -41.636719 7.808594 -41.460938 7.222656 -41.167969 C 6.636719 -40.871094 6.105469 -40.519531 5.695312 -40.050781 C 5.285156 -39.582031 4.992188 -39.109375 4.757812 -38.582031 C 4.523438 -37.996094 4.464844 -37.464844 4.464844 -36.996094 C 4.464844 -36.175781 4.699219 -35.351562 5.167969 -34.589844 L 15.796875 -17.617188 C 15.914062 -17.5 15.972656 -17.324219 15.972656 -17.089844 L 15.972656 -4.640625 C 15.972656 -4.109375 16.03125 -3.582031 16.265625 -3.054688 C 16.5 -2.464844 16.796875 -1.996094 17.207031 -1.527344 C 17.617188 -1.058594 18.144531 -0.644531 18.792969 -0.351562 C 19.378906 -0.0585938 20.144531 0.0585938 20.964844 0.0585938 C 21.785156 0.0585938 22.492188 -0.0585938 23.078125 -0.351562 C 23.667969 -0.644531 24.195312 -1 24.605469 -1.46875 C 25.015625 -1.9375 25.308594 -2.40625 25.546875 -2.996094 C 25.78125 -3.523438 25.898438 -4.050781 25.898438 -4.582031 L 25.898438 -17.03125 C 25.898438 -17.265625 25.957031 -17.441406 26.074219 -17.558594 L 36.703125 -34.53125 C 37.171875 -35.292969 37.40625 -36.117188 37.40625 -36.9375 C 37.40625 -37.40625 37.289062 -37.9375 37.113281 -38.523438 C 36.878906 -39.050781 36.585938 -39.523438 36.175781 -39.992188 C 35.761719 -40.460938 35.234375 -40.8125 34.648438 -41.109375 C 34 -41.402344 33.296875 -41.578125 32.476562 -41.578125 C 31.476562 -41.578125 30.597656 -41.34375 29.890625 -40.929688 C 29.1875 -40.460938 28.597656 -39.933594 28.246094 -39.347656 Z M 20.964844 -27.71875 "/></g></g></g></svg>